HIERARCHY
ROOT Hips
{
	OFFSET 0.000000 0.000000 0.000000
	CHANNELS 6 Xposition Yposition Zposition Zrotation Yrotation Xrotation 
	JOINT LHipJoint
	{
		OFFSET 0.000000 0.000000 0.000000
		CHANNELS 3 Zrotation Yrotation Xrotation
		JOINT LeftUpLeg
		{
			OFFSET 1.363060 -1.794630 0.839290
			CHANNELS 3 Zrotation Yrotation Xrotation
			JOINT LeftLeg
			{
				OFFSET 2.448110 -6.726130 0.000000
				CHANNELS 3 Zrotation Yrotation Xrotation
				JOINT LeftFoot
				{
					OFFSET 2.562200 -7.039590 0.000000
					CHANNELS 3 Zrotation Yrotation Xrotation
					JOINT LeftToeBase
					{
						OFFSET 0.157640 -0.433110 2.322550
						CHANNELS 3 Zrotation Yrotation Xrotation
						End Site
						{
							OFFSET 0.000000 0.000000 0.000000
						}
					}
				}
			}
		}
	}
	JOINT RHipJoint
	{
		OFFSET 0.000000 0.000000 0.000000
		CHANNELS 3 Zrotation Yrotation Xrotation
		JOINT RightUpLeg
		{
			OFFSET -1.305520 -1.794630 0.839290
			CHANNELS 3 Zrotation Yrotation Xrotation
			JOINT RightLeg
			{
				OFFSET -2.542530 -6.985550 0.000000
				CHANNELS 3 Zrotation Yrotation Xrotation
				JOINT RightFoot
				{
					OFFSET -2.568260 -7.056230 0.000000
					CHANNELS 3 Zrotation Yrotation Xrotation
					JOINT RightToeBase
					{
						OFFSET -0.164730 -0.452590 2.363150
						CHANNELS 3 Zrotation Yrotation Xrotation
						End Site
						{
							OFFSET 0.000000 0.000000 0.000000
						}
					}
				}
			}
		}
	}
}
MOTION
Frames: 22
Frame Time: 0.008333
-1.376800 17.069630 -0.885393 -11.116867 86.228666 -15.359821 -10.485869 2.657451 0.589355 -8.982942 7.543642 -0.559730 -1.925024 0.395716 17.058144 1.678195 8.450859 -14.509086 -1.308800 -0.000000 -21.671600 9.796278 -0.400207 -0.721219 8.795192 -11.235155 -24.931209 1.494972 -1.751452 29.623526 -1.503733 -7.308786 -4.260684 -0.764000 -0.000000 -33.136301
-1.230104 17.061614 -0.874233 -10.962674 86.533809 -15.124949 -10.459488 2.685396 0.552771 -8.998992 7.464620 0.413670 -1.939674 0.349303 16.284457 1.671896 8.334555 -14.600955 -1.312600 -0.000000 -21.936500 9.718464 -0.316497 -0.625677 9.065880 -11.281963 -25.223905 1.655091 -1.506868 26.546272 -1.489167 -7.346191 -3.442764 -0.925600 0.000000 -34.224500
-1.082380 17.051263 -0.862015 -9.708444 86.826516 -13.795001 -10.444580 2.710793 0.505655 -9.050709 7.427659 1.413649 -1.956833 0.298989 15.474419 1.665689 8.219891 -14.686418 -1.315600 0.000000 -22.233800 9.640212 -0.240154 -0.519045 9.276750 -11.309235 -25.478150 1.814084 -1.252001 23.462540 -1.449483 -7.273270 -2.593029 -1.079500 -0.000001 -35.497300
-0.933444 17.038734 -0.848857 -7.062964 87.112179 -11.077594 -10.445067 2.730925 0.448816 -9.133827 7.431794 2.435781 -1.975375 0.243960 14.633509 1.658722 8.103812 -14.759314 -1.316800 0.000000 -22.585800 9.557943 -0.172440 -0.400217 9.426209 -11.312878 -25.703717 1.972002 -0.989111 20.404067 -1.385769 -7.088781 -1.748909 -1.213900 0.000000 -36.928500
-0.783191 17.024082 -0.834979 -2.769082 87.401491 -6.714027 -10.462340 2.740412 0.382533 -9.240814 7.472081 3.475119 -1.993387 0.182935 13.772804 1.650102 7.982466 -14.813459 -1.314800 -0.000000 -23.010400 9.468473 -0.116494 -0.268487 9.514878 -11.293797 -25.909922 2.128119 -0.721604 17.401094 -1.302642 -6.805197 -0.951757 -1.318800 -0.000000 -38.455300
-0.631453 17.007504 -0.820551 3.314072 87.716133 -0.557139 -10.489423 2.732442 0.308361 -9.357686 7.536519 4.514404 -2.008908 0.114728 12.919560 1.638625 7.846412 -14.849438 -1.309200 0.000000 -23.514699 9.373740 -0.076236 -0.121419 9.550404 -11.257916 -26.111444 2.279772 -0.453602 14.480966 -1.208577 -6.451917 -0.241388 -1.389400 -0.000000 -40.010800
-0.478424 16.989017 -0.805939 11.306335 88.071222 7.506985 -10.503470 2.701069 0.221650 -9.465528 7.616705 5.567525 -2.019217 0.038489 12.075990 1.624784 7.697526 -14.858126 -1.298700 0.000000 -24.108100 9.288029 -0.051808 0.039835 9.543374 -11.214609 -26.302189 2.421085 -0.190095 11.663543 -1.111843 -6.056012 0.344257 -1.423500 0.000000 -41.470000
-0.324151 16.968754 -0.791408 20.915834 88.464281 17.187959 -10.464956 2.656423 0.123244 -9.535340 7.706954 6.620782 -2.024849 -0.040468 11.261198 1.609211 7.534595 -14.843974 -1.283100 0.000000 -24.786400 9.243372 -0.028118 0.214327 9.522170 -11.167923 -26.479080 2.543747 0.068385 8.961388 -1.020118 -5.653893 0.785431 -1.426300 -0.000000 -42.729300
-0.168645 16.946829 -0.776990 32.093017 88.864132 28.442381 -10.347227 2.624226 0.022997 -9.553928 7.795574 7.638710 -2.029987 -0.110979 10.504627 1.593623 7.364315 -14.824500 -1.264400 0.000001 -25.525400 9.267388 0.022606 0.395583 9.511130 -11.119085 -26.649351 2.641602 0.324939 6.402935 -0.938434 -5.281801 1.074162 -1.407800 0.000000 -43.756400
-0.012092 16.923297 -0.762800 44.649866 89.193759 41.075877 -10.168508 2.632419 -0.069425 -9.528280 7.886943 8.611368 -2.038889 -0.162089 9.804864 1.579463 7.203376 -14.804736 -1.243600 0.000001 -26.309400 9.355084 0.123680 0.567908 9.522191 -11.067508 -26.801705 2.717535 0.585601 4.007224 -0.866209 -4.955594 1.219678 -1.377601 -0.000000 -44.480500
0.145352 16.898219 -0.748700 58.833038 89.407583 55.334138 -9.977765 2.689040 -0.142786 -9.489464 7.965480 9.526404 -2.053451 -0.190294 9.174525 1.568281 7.068098 -14.794319 -1.223999 -0.000000 -27.106200 9.470491 0.275662 0.717159 9.546138 -11.034176 -26.950528 2.779659 0.850543 1.809791 -0.803610 -4.682421 1.228850 -1.342000 0.000000 -44.876400
0.303555 16.871693 -0.735005 73.416476 89.489017 69.987129 -9.838165 2.778308 -0.201095 -9.440622 8.054486 10.385699 -2.070860 -0.200508 8.621408 1.556112 6.942037 -14.789040 -1.204300 -0.000000 -27.925400 9.560292 0.451860 0.843721 9.568193 -11.002313 -27.072067 2.832175 1.119893 -0.232742 -0.757822 -4.511135 1.160159 -1.318800 0.000000 -44.932600
0.462372 16.843790 -0.721181 88.704634 89.463260 85.341641 -9.754792 2.879989 -0.240699 -9.409320 8.104867 11.192131 -2.088256 -0.199369 8.164882 1.547280 6.844363 -14.804123 -1.190400 0.000000 -28.721700 9.612358 0.633430 0.942906 9.573885 -11.024560 -27.212704 2.876940 1.379021 -2.052811 -0.729360 -4.422072 1.004161 -1.301899 0.000000 -44.669900
0.621721 16.814618 -0.707202 103.183538 89.343030 99.882830 -9.727459 2.974096 -0.268934 -9.385904 8.116907 11.954107 -2.102140 -0.193103 7.810850 1.541310 6.767862 -14.842760 -1.182900 0.000000 -29.498200 9.621573 0.799414 1.020862 9.558225 -11.093849 -27.368760 2.910619 1.619112 -3.661983 -0.722532 -4.435885 0.805270 -1.298700 -0.000000 -44.126300
0.781540 16.784401 -0.692942 115.803477 89.139873 112.560955 -9.736269 3.050183 -0.290773 -9.362979 8.085183 12.678757 -2.111068 -0.184905 7.559635 1.539341 6.713718 -14.909365 -1.183200 0.000000 -30.258800 9.601197 0.941021 1.081441 9.519506 -11.206257 -27.548667 2.930170 1.829947 -5.039583 -0.737616 -4.549428 0.588267 -1.309300 0.000001 -43.347500
0.941823 16.753343 -0.678285 126.102495 88.867778 122.914087 -9.760257 3.106741 -0.309478 -9.332804 8.010874 13.371366 -2.115105 -0.175389 7.405066 1.542259 6.683322 -15.006090 -1.191600 0.000000 -31.016800 9.565629 1.058486 1.127246 9.455379 -11.338215 -27.814725 2.934880 1.993273 -6.037323 -0.768449 -4.751811 0.305169 -1.334100 -0.000000 -42.397100
1.102505 16.721731 -0.663074 134.186275 88.542599 131.040037 -9.781498 3.150312 -0.320243 -9.297389 7.887975 14.044151 -2.114761 -0.164194 7.329716 1.551924 6.688033 -15.128388 -1.208400 -0.000000 -31.787500 9.505461 1.167316 1.141940 9.365296 -11.444910 -28.763650 2.937211 1.992980 -5.345050 -0.760491 -4.961402 -0.750228 -1.363600 0.000000 -41.329600
1.263748 16.689871 -0.647378 140.442155 88.182515 137.339933 -9.801188 3.180969 -0.336202 -9.238671 7.749672 14.684485 -2.111651 -0.149462 7.333914 1.564103 6.702678 -15.270449 -1.229700 -0.000000 -32.613000 9.460163 1.250667 1.160758 9.233981 -11.524144 -29.475625 2.923409 1.997110 -4.918451 -0.783569 -5.261929 -1.469401 -1.408100 0.000001 -40.236800
1.425637 16.658100 -0.631141 145.285264 87.800585 142.227067 -9.814983 3.204095 -0.356346 -9.160895 7.596986 15.301635 -2.106616 -0.130287 7.398832 1.578296 6.729056 -15.416088 -1.252900 0.000000 -33.527900 9.434805 1.312348 1.181570 9.061374 -11.579010 -29.927907 2.896096 2.009855 -4.787411 -0.835072 -5.611659 -1.825757 -1.458900 0.000000 -39.183101
1.588267 16.626680 -0.614321 149.083878 87.411206 146.067988 -9.823429 3.223550 -0.381056 -9.060292 7.438258 15.900566 -2.100146 -0.105699 7.512891 1.592065 6.757939 -15.548254 -1.274200 0.000000 -34.556600 9.429649 1.354129 1.204893 8.846583 -11.595402 -30.103094 2.857258 2.034051 -4.960448 -0.916588 -5.985472 -1.820967 -1.509700 -0.000000 -38.223900
1.751908 16.595852 -0.596938 152.116282 87.026519 149.139680 -9.828832 3.243134 -0.410820 -8.928776 7.289145 16.482100 -2.092809 -0.074709 7.669450 1.601063 6.770538 -15.644700 -1.287400 -0.000000 -35.740200 9.443013 1.376589 1.230620 8.595552 -11.568772 -29.993164 2.810230 2.071940 -5.440561 -1.029822 -6.354470 -1.469142 -1.552500 0.000000 -37.382400
1.916638 16.565907 -0.578892 154.638208 86.653318 151.691400 -9.831901 3.263263 -0.444394 -8.769786 7.132735 17.067976 -2.083389 -0.036745 7.849965 1.605782 6.775579 -15.687610 -1.290401 -0.000000 -37.029899 9.471766 1.380729 1.255556 8.310329 -11.490235 -29.607387 2.756334 2.119014 -6.175455 -1.172961 -6.710966 -0.815895 -1.587300 -0.000000 -36.720899
